<?xml version="1.0" standalone="no"?>
<!DOCTYPE svg PUBLIC "-//W3C//DTD SVG 20010904//EN"
 "http://www.w3.org/TR/2001/REC-SVG-20010904/DTD/svg10.dtd">
<svg version="1.0" xmlns="http://www.w3.org/2000/svg"
 width="300.000000pt" height="300.000000pt" viewBox="0 0 300.000000 300.000000"
 preserveAspectRatio="xMidYMid meet">
<metadata>
Created by potrace 1.11, written by Peter Selinger 2001-2013
</metadata>
<g transform="translate(0.000000,300.000000) scale(0.100000,-0.100000)"
fill="#000000" stroke="none">
<path d="M2280 2160 c-55 -10 -79 -20 -345 -150 -115 -56 -334 -161 -485 -233
-151 -72 -331 -159 -399 -192 l-125 -62 -70 23 c-39 12 -131 41 -204 65 l-132
43 -45 -22 c-25 -12 -45 -26 -45 -30 0 -13 211 -240 277 -298 86 -75 93 -78
194 -71 153 11 379 73 558 152 56 25 103 45 105 45 1 0 -3 -46 -10 -102 -6
-57 -15 -132 -18 -168 -17 -180 -46 -459 -51 -488 -4 -22 -2 -34 8 -37 16 -7
178 68 199 92 8 10 86 221 173 468 86 248 162 455 168 461 7 5 111 57 232 115
186 88 228 112 272 155 78 78 91 157 31 196 -57 37 -197 56 -288 38z"/>
<path d="M973 2067 c-46 -23 -83 -46 -83 -52 0 -5 33 -31 73 -57 39 -25 118
-76 174 -112 56 -36 108 -66 114 -66 17 0 339 153 339 161 0 3 -48 23 -107 44
-60 20 -164 57 -233 81 -69 24 -141 44 -160 43 -20 0 -70 -18 -117 -42z"/>
</g>
</svg>
